# This file uses centimeters as units for non-parametric coordinates.

mtllib Tile 2.mtl
g default
v -4.178051 0.365864 -2.870510
v -5.183548 0.365864 -2.870510
v -4.178051 0.365864 4.665413
v -5.183548 0.365864 4.665413
v -5.155887 3.554468 -4.859474
v -7.700771 3.554468 -2.870510
v -7.786896 3.554468 3.995897
v -5.801847 3.554468 4.946745
v -5.155887 6.407145 -4.859474
v -7.700771 6.407145 -2.870510
v -7.786896 6.407145 3.995897
v -5.835646 6.407145 4.946745
v -5.155887 8.625093 -3.411465
v -5.814012 8.625093 -2.870510
v -6.123285 8.625093 3.995897
v -4.731184 8.568280 4.946745
v -5.155887 -0.634136 -3.933107
v -5.155887 -0.634136 -2.927610
v -5.155887 -0.634136 3.709337
v -5.155887 -0.634136 4.714834
v -5.155887 0.365864 -3.933107
v -5.183548 0.365864 3.701569
v 5.117088 0.365864 -3.933107
v 5.117088 0.365864 -2.927610
v 5.117088 0.365864 2.417818
v 5.117088 0.365864 4.714834
v 5.117088 -0.634136 -3.933107
v 5.117088 -0.634136 -2.927610
v 5.117088 -0.634136 3.709337
v 5.117088 -0.634136 4.714834
v -3.695549 3.554468 -5.601315
v 5.117088 3.554468 -4.859474
v 3.861515 3.554468 -5.641209
v 5.117088 3.554468 4.890881
v -3.695549 6.407145 -5.601315
v 5.117088 6.407145 -4.859474
v 3.861515 6.407145 -5.641209
v 5.117088 6.407145 4.890881
v -3.695549 8.625093 -3.900864
v 5.117088 8.625093 -3.411465
v 3.861515 8.625093 -3.977598
v 5.117088 8.625093 4.193193
v 5.742272 0.365864 -2.927610
v 5.742272 0.365864 3.709337
v 5.742272 -0.634136 3.709337
v 5.742272 -0.634136 -2.927610
v 5.742272 8.599867 3.709337
v 5.742272 8.599867 -2.927610
v 5.742272 3.639378 -2.927610
v 5.742272 3.639378 3.709337
v 5.742272 6.447727 -2.927610
v 5.742272 6.447727 3.709337
v 5.117088 8.625093 -1.137068
v 5.742272 8.599867 -0.942635
v 5.742272 6.447727 -0.817825
v 5.742272 3.639378 -1.694345
v 5.742272 0.365864 -1.626917
v 5.742272 -0.634136 -0.942635
v 5.117088 -0.634136 -0.942635
v -5.155887 -0.634136 -0.942635
v -5.183548 0.365864 -0.956036
v 5.117088 0.365864 -1.626015
v 5.117088 3.554468 -1.718939
v 5.117088 6.407145 -0.845766
v 5.117088 8.625093 1.930342
v 5.742272 8.599867 1.734438
v 5.742272 6.447727 1.612045
v 5.742272 3.639378 2.486147
v 5.742272 0.365864 2.418720
v 5.742272 -0.634136 1.734438
v 5.117088 -0.634136 1.734438
v -5.155887 -0.634136 1.734438
v -5.183548 0.365864 1.741295
v 5.117088 3.554468 2.516607
v 5.117088 6.407145 1.643438
v -4.178051 0.365864 1.645742
v -4.178051 0.365864 -1.235126
v -3.877209 -0.634136 -2.927610
v -3.877209 -0.634136 -0.942635
v -3.877209 -0.634136 1.734438
v -3.877209 -0.634136 3.709337
v -3.877209 -0.634136 4.714834
v 3.191593 0.365864 5.417582
v -3.445354 0.365864 5.417582
v -3.445354 -0.634136 5.417582
v 3.191593 -0.634136 5.417582
v -3.445354 8.599867 5.417582
v 3.191593 8.599867 5.417582
v 3.191593 3.639378 5.417582
v -3.445354 3.639378 5.417582
v 3.191593 6.447727 5.417582
v -3.445354 6.447727 5.417582
v 1.401051 8.625093 4.792404
v 1.206619 8.599867 5.417582
v 1.081808 6.447727 5.417582
v 1.958328 3.639378 5.417582
v 1.890901 0.365864 5.417582
v 1.206619 -0.634136 5.417582
v 1.220501 -0.634136 4.714834
v 1.922840 0.365864 4.697851
v 1.982922 3.554468 4.792404
v 1.109749 6.407145 4.792404
v -1.666358 8.625093 4.792404
v -1.470455 8.599867 5.417582
v -1.348064 6.447727 5.417582
v -2.222164 3.639378 5.417582
v -2.154737 0.365864 5.417582
v -1.470455 -0.634136 5.417582
v -1.461907 -0.634136 4.714834
v -2.112188 0.365864 4.676397
v -2.252625 3.554468 4.792404
v -1.379453 6.407145 4.792404
vt 0.542101 0.248395
vt 0.611845 0.244562
vt 0.560893 0.493882
vt 0.624443 0.506275
vt 0.547071 0.183820
vt 0.625000 0.250000
vt 0.625000 0.500000
vt 0.579381 0.506415
vt 0.550891 0.184417
vt 0.625000 0.250000
vt 0.625000 0.500000
vt 0.576807 0.507266
vt 0.585400 0.233970
vt 0.625000 0.250000
vt 0.625000 0.500000
vt 0.557312 0.502498
vt 0.541667 0.500000
vt 0.625000 0.000000
vt 0.618453 0.201567
vt 0.588790 0.362293
vt 0.405642 0.249210
vt 0.446679 0.249691
vt 0.375000 0.500000
vt 0.458333 0.500000
vt 0.458333 0.750000
vt 0.375000 0.750000
vt 0.458333 0.500000
vt 0.483257 0.500000
vt 0.483257 0.750000
vt 0.458333 0.750000
vt 0.499190 0.501749
vt 0.702916 0.425357
vt 0.643289 0.817056
vt 0.541667 0.750000
vt 0.375466 0.518134
vt 0.458333 0.968882
vt 0.458333 1.000000
vt 0.483257 0.968882
vt 0.483257 1.000000
vt 0.541667 0.531118
vt 0.624998 0.921933
vt 0.625000 1.000000
vt 0.655180 0.008345
vt 0.639068 0.235880
vt 0.380050 0.330676
vt 0.447620 0.467379
vt 0.458890 0.322071
vt 0.426570 0.280637
vt 0.375000 0.500000
vt 0.431497 0.499998
vt 0.377801 0.249930
vt 0.428458 0.254112
vt 0.375000 0.500000
vt 0.429216 0.499997
vt 0.380337 0.249476
vt 0.375000 0.500000
vt 0.449901 0.499995
vt 0.452261 0.500000
vt 0.480816 0.500000
vt 0.483257 0.500000
vt 0.458333 0.500000
vt 0.542124 0.749995
vt 0.541667 0.500000
vt 0.483257 0.750000
vt 0.483257 0.500000
vt 0.473511 0.500000
vt 0.434080 0.500000
vt 0.541667 0.500000
vt 0.563172 0.500000
vt 0.458333 0.500000
vt 0.483257 0.500000
vt 0.473511 0.500000
vt 0.434080 0.500000
vt 0.458333 0.500000
vt 0.483257 0.500000
vt 0.541667 0.500000
vt 0.565194 0.500000
vt 0.541667 0.500000
vt 0.546696 0.500000
vt 0.519328 0.500000
vt 0.516870 0.500000
vt 0.516870 0.500000
vt 0.516870 0.500000
vt 0.516870 0.750000
vt 0.516870 0.750000
vt 0.516870 0.968882
vt 0.516870 1.000000
vt 0.526690 0.500000
vt 0.516870 0.500000
vt 0.526689 0.500000
vt 0.557438 0.452418
vt 0.494719 0.448201
vt 0.498598 0.286965
vt 0.481934 0.287504
vt 0.125000 0.000000
vt 0.125000 0.250000
vt 0.622832 0.472802
vt 0.619554 0.404725
vt 0.615045 0.311049
vt 0.543828 0.396467
vt 0.542441 0.301860
vt 0.458333 0.500000
vt 0.483257 0.500000
vt 0.483257 0.750000
vt 0.458333 0.750000
vt 0.434154 0.500000
vt 0.480816 0.500000
vt 0.483257 0.500000
vt 0.458333 0.500000
vt 0.550180 0.570936
vt 0.546943 0.765114
vt 0.541667 0.750000
vt 0.541667 0.500000
vt 0.483267 0.759404
vt 0.434899 0.787714
vt 0.436142 0.609464
vt 0.477924 0.515977
vt 0.473511 0.500000
vt 0.438023 0.525436
vt 0.541667 0.500000
vt 0.570099 0.510699
vt 0.458333 0.500000
vt 0.483257 0.500000
vt 0.473511 0.500000
vt 0.438377 0.500000
vt 0.458333 0.500000
vt 0.483257 0.500000
vt 0.541667 0.500000
vt 0.569591 0.502888
vt 0.541667 0.500000
vt 0.555105 0.500823
vt 0.519328 0.500000
vt 0.516870 0.500000
vt 0.516870 0.500000
vt 0.516870 0.500000
vt 0.516870 0.750000
vt 0.516771 0.756894
vt 0.526690 0.500000
vt 0.516870 0.500000
vt 0.526689 0.500000
vt 0.521332 0.520320
vt 0.659637 0.270821
vt 0.687717 0.346909
vt 0.000000 0.000000
vt 0.999993 0.000011
vt 0.999995 1.130016
vt 0.000003 1.168019
vt 0.000000 0.000000
vt 1.000000 0.000000
vt 0.883573 0.997629
vt 0.000001 1.015453
vt 0.630125 0.889905
vt 0.635801 0.854728
vn 0.026996 0.999629 0.003525
vn 0.026996 0.999629 0.003525
vn 0.026996 0.999629 0.003525
vn 0.026996 0.999629 0.003525
vn -0.779407 -0.626486 -0.006352
vn -0.774613 -0.632436 0.000000
vn -0.774613 -0.632436 0.000000
vn -0.299961 -0.141403 0.943413
vn -0.299961 -0.141403 0.943413
vn -0.299961 -0.141403 0.943413
vn -0.299961 -0.141403 0.943413
vn 0.925703 0.375571 0.044943
vn 0.925420 0.376225 0.045306
vn 0.956054 0.293189 0.000000
vn -0.999921 0.000000 -0.012542
vn -0.999921 0.000000 -0.012542
vn -0.999921 0.000000 -0.012542
vn -0.999921 0.000000 -0.012542
vn -0.435010 -0.002577 0.900422
vn -0.435010 -0.002577 0.900422
vn -0.435010 -0.002577 0.900422
vn -0.435010 -0.002577 0.900422
vn 0.997706 0.005910 0.067441
vn 0.997706 0.005910 0.067441
vn 0.997706 0.005910 0.067441
vn 0.997706 0.005910 0.067441
vn -0.780530 0.624714 -0.022473
vn -0.780530 0.624714 -0.022473
vn -0.780530 0.624714 -0.022473
vn -0.780530 0.624714 -0.022473
vn -0.468436 0.296105 0.832400
vn -0.468436 0.296104 0.832400
vn -0.468436 0.296105 0.832400
vn -0.468436 0.296105 0.832400
vn 0.968542 -0.248519 0.012822
vn 0.968542 -0.248519 0.012822
vn 0.968542 -0.248519 0.012822
vn 0.968542 -0.248519 0.012822
vn -0.430056 -0.475119 -0.767668
vn -0.430056 -0.475119 -0.767668
vn -0.430056 -0.475119 -0.767668
vn -0.430056 -0.475119 -0.767668
vn -0.615793 0.000000 -0.787908
vn -0.615793 0.000000 -0.787908
vn -0.615793 0.000000 -0.787908
vn -0.615793 0.000000 -0.787908
vn -0.549969 0.461212 -0.696289
vn -0.549969 0.461212 -0.696289
vn -0.549969 0.461212 -0.696289
vn -0.549969 0.461212 -0.696289
vn -0.999618 -0.027650 0.000000
vn -0.999618 -0.027650 0.000000
vn -0.999618 -0.027650 0.000000
vn -0.999618 -0.027650 0.000000
vn 1.000000 0.000000 0.000000
vn 1.000000 0.000000 0.000000
vn 1.000000 0.000000 0.000000
vn 1.000000 0.000000 0.000000
vn 1.000000 0.000000 0.000000
vn 1.000000 0.000000 0.000000
vn 1.000000 0.000000 0.000000
vn 1.000000 0.000000 0.000000
vn 1.000000 0.000000 0.000000
vn 1.000000 0.000000 0.000000
vn 1.000000 0.000000 0.000000
vn 1.000000 0.000000 0.000000
vn 0.000000 -1.000000 0.000000
vn 0.000000 -1.000000 0.000000
vn 0.000000 -1.000000 0.000000
vn 0.000000 -1.000000 0.000000
vn 0.000000 -1.000000 0.000000
vn 0.000000 -1.000000 0.000000
vn 0.000000 -1.000000 0.000000
vn 0.000000 -1.000000 0.000000
vn 0.000000 -1.000000 0.000000
vn 0.000000 0.049361 0.998781
vn 0.000000 0.049361 0.998781
vn 0.000000 0.049361 0.998781
vn 0.000000 0.049361 0.998781
vn 0.000000 0.529250 0.848466
vn 0.000000 0.529250 0.848466
vn 0.000000 0.529250 0.848466
vn 0.807083 -0.164726 -0.566995
vn 0.807083 -0.164726 -0.566995
vn 0.807083 -0.164726 -0.566995
vn 0.807083 -0.164726 -0.566995
vn 0.528540 0.000000 -0.848908
vn 0.528540 0.000000 -0.848908
vn 0.528540 0.000000 -0.848908
vn 0.528540 0.000000 -0.848908
vn 0.402296 0.525746 -0.749499
vn 0.402296 0.525746 -0.749499
vn 0.402296 0.525746 -0.749499
vn 0.402296 0.525746 -0.749499
vn 0.040318 0.999187 0.000000
vn 0.040318 0.999187 0.000000
vn 0.040318 0.999187 0.000000
vn 0.040318 0.999187 0.000000
vn -0.655383 0.409735 0.634500
vn -0.655383 0.409735 0.634500
vn -0.655383 0.409735 0.634500
vn -0.655383 0.409735 0.634500
vn 0.000000 -1.000000 0.000000
vn 0.000000 -1.000000 0.000000
vn 0.000000 -1.000000 0.000000
vn 0.000000 -1.000000 0.000000
vn 0.000000 0.000000 -1.000000
vn 0.000000 0.000000 -1.000000
vn 0.000000 0.000000 -1.000000
vn 0.000000 0.000000 -1.000000
vn -1.000000 0.000000 0.000000
vn -1.000000 0.000000 0.000000
vn -1.000000 0.000000 0.000000
vn -1.000000 0.000000 0.000000
vn 1.000000 0.000000 0.000000
vn 1.000000 0.000000 0.000000
vn 1.000000 0.000000 0.000000
vn 1.000000 0.000000 0.000000
vn 0.832009 -0.158899 -0.531519
vn 0.832009 -0.158899 -0.531519
vn 0.922062 -0.051614 -0.383586
vn 0.915158 -0.061893 -0.398317
vn -1.000000 0.000000 0.000000
vn -1.000000 0.000000 0.000000
vn 0.937475 0.037566 -0.346021
vn 0.930940 0.052907 -0.361319
vn 1.000000 -0.000000 0.000000
vn 1.000000 -0.000000 0.000000
vn 0.883893 0.000000 0.467689
vn 0.883893 0.000000 0.467689
vn 0.853303 0.036965 0.520104
vn 0.858479 0.031072 0.511907
vn -1.000000 0.000000 0.000000
vn -1.000000 0.000000 0.000000
vn 0.877539 0.150819 -0.455170
vn 0.877539 0.150819 -0.455170
vn 1.000000 -0.000000 0.000000
vn 1.000000 -0.000000 0.000000
vn 0.795618 0.095506 0.598222
vn 0.795618 0.095506 0.598222
vn 0.040318 0.999187 0.000000
vn 0.040318 0.999187 0.000000
vn 1.000000 -0.000000 0.000000
vn 1.000000 -0.000000 0.000000
vn 1.000000 0.000000 0.000000
vn 1.000000 0.000000 0.000000
vn 0.000000 -1.000000 0.000000
vn 0.000000 -1.000000 0.000000
vn 0.000000 -1.000000 0.000000
vn 0.000000 -1.000000 0.000000
vn -1.000000 -0.000000 0.000000
vn -1.000000 0.000000 0.000000
vn 0.040318 0.999187 0.000000
vn 0.040318 0.999187 0.000000
vn 1.000000 0.000000 0.000000
vn 1.000000 0.000000 0.000000
vn 1.000000 0.000000 0.000000
vn 1.000000 0.000000 0.000000
vn 1.000000 0.000000 0.000000
vn 1.000000 0.000000 0.000000
vn 1.000000 0.000000 0.000000
vn 1.000000 0.000000 0.000000
vn 0.000000 -1.000000 0.000000
vn 0.000000 -1.000000 0.000000
vn -1.000000 -0.000000 0.000000
vn -1.000000 -0.000000 0.000000
vn -1.000000 -0.000000 0.000000
vn -1.000000 0.000000 0.000000
vn 0.000000 1.000000 0.000000
vn 0.000000 1.000000 0.000000
vn 0.000000 1.000000 0.000000
vn 0.000000 1.000000 0.000000
vn -0.020623 0.024801 0.999480
vn -0.020623 0.024801 0.999480
vn -0.020623 0.024801 0.999480
vn -0.020623 0.024801 0.999480
vn -0.010508 -0.295278 0.955354
vn -0.010508 -0.295278 0.955354
vn -0.010508 -0.295278 0.955354
vn -0.010508 -0.295278 0.955354
vn -0.025369 0.025705 -0.999348
vn -0.025369 0.025705 -0.999348
vn -0.025369 0.025705 -0.999348
vn -0.025369 0.025705 -0.999348
vn -0.017667 -0.294875 -0.955373
vn -0.017667 -0.294875 -0.955372
vn -0.017667 -0.294875 -0.955372
vn -0.017667 -0.294875 -0.955372
vn 0.064777 -0.997900 0.000000
vn 0.064777 -0.997900 0.000000
vn 0.064777 -0.997900 0.000000
vn 0.064777 -0.997900 0.000000
vn -0.999618 -0.027650 0.000000
vn -0.999618 -0.027650 0.000000
vn -0.999618 -0.027650 0.000000
vn -0.999618 -0.027650 0.000000
vn -0.999618 -0.027650 0.000000
vn -0.999618 -0.027650 0.000000
vn -0.999618 -0.027650 0.000000
vn -0.999618 -0.027650 0.000000
vn -0.999618 -0.027650 0.000000
vn -0.999618 -0.027650 0.000000
vn -0.999618 -0.027650 0.000000
vn -0.999618 -0.027650 0.000000
vn -0.999820 -0.013446 -0.013372
vn -0.999820 -0.013446 -0.013372
vn -0.999820 -0.013446 -0.013372
vn -0.999820 -0.013446 -0.013372
vn -0.758662 -0.181757 -0.625617
vn -0.758662 -0.181757 -0.625617
vn -0.758662 -0.181757 -0.625617
vn -0.758662 -0.181757 -0.625617
vn -0.452905 0.000000 -0.891559
vn -0.452905 0.000000 -0.891559
vn -0.452905 0.000000 -0.891559
vn -0.452905 0.000000 -0.891559
vn -0.325097 0.547357 -0.771176
vn -0.325097 0.547357 -0.771176
vn -0.325097 0.547357 -0.771176
vn -0.325097 0.547357 -0.771176
vn 0.000000 1.000000 0.000000
vn 0.000000 1.000000 0.000000
vn 0.000000 1.000000 0.000000
vn 0.000000 1.000000 0.000000
vn 0.000000 1.000000 0.000000
vn 0.000000 1.000000 0.000000
vn 0.000000 1.000000 0.000000
vn 0.000000 1.000000 0.000000
vn 0.000000 1.000000 0.000000
vn 0.000000 1.000000 0.000000
vn 0.002485 0.524023 0.851701
vn 0.002485 0.524023 0.851701
vn 0.002485 0.524023 0.851701
vn 0.002485 0.524023 0.851701
vn 0.000000 0.000000 1.000000
vn 0.000000 0.000000 1.000000
vn 0.000000 0.000000 1.000000
vn 0.000000 0.000000 1.000000
vn 0.000000 -0.546671 0.837348
vn 0.000000 -0.546671 0.837348
vn 0.000000 -0.546671 0.837348
vn 0.000000 -0.546671 0.837348
vn 0.000000 1.000000 -0.000002
vn 0.000000 1.000000 -0.000002
vn 0.000000 1.000000 -0.000002
vn 0.000000 1.000000 -0.000002
vn -0.006148 0.604249 -0.796772
vn -0.006148 0.604250 -0.796771
vn -0.006148 0.604250 -0.796771
vn -0.006148 0.604250 -0.796772
vn -0.005279 0.000000 -0.999986
vn -0.005279 0.000000 -0.999986
vn -0.005279 0.000000 -0.999986
vn -0.005279 0.000000 -0.999986
vn -0.001978 -0.467852 -0.883804
vn -0.001978 -0.467852 -0.883805
vn -0.001978 -0.467852 -0.883805
vn -0.001978 -0.467852 -0.883805
vn 0.000000 0.000000 -1.000000
vn 0.000000 0.000000 -1.000000
vn 0.000000 0.000000 -1.000000
vn 0.000000 0.000000 -1.000000
vn 0.000000 -1.000000 0.000000
vn 0.000000 -1.000000 0.000000
vn 0.000000 -1.000000 0.000000
vn 0.000000 -1.000000 0.000000
vn 0.000000 -1.000000 0.000000
vn 0.000000 -1.000000 0.000000
vn -0.779404 -0.626490 -0.006347
vn -0.780269 -0.625410 -0.006521
vn -0.780415 -0.625230 -0.006317
vn -0.784894 -0.619630 0.000000
vn 0.891106 0.453795 0.000000
vn 0.921691 0.385507 0.043257
vn 0.918993 0.392337 0.039025
vn 0.000000 0.000000 1.000000
vn 0.000000 0.000000 1.000000
vn 0.000000 0.000000 1.000000
vn 0.000000 0.000000 1.000000
vn 0.003258 0.999514 0.031001
vn 0.002196 0.999418 0.034040
vn 0.001521 0.999352 0.035969
vn 0.003258 0.999514 0.031001
vn -0.776677 -0.101467 0.621673
vn -0.776677 -0.101467 0.621673
vn -0.776677 -0.101467 0.621673
vn -0.776677 -0.101467 0.621673
vn 0.000000 -1.000000 -0.000000
vn 0.000000 -1.000000 -0.000000
vn 0.000000 -1.000000 -0.000000
vn 0.000000 -1.000000 -0.000000
vn 0.342849 0.000000 0.939391
vn 0.342849 0.000000 0.939391
vn 0.342849 0.000000 0.939391
vn 0.342849 0.000000 0.939391
vn 0.018225 0.042216 -0.998942
vn 0.018225 0.042216 -0.998942
vn 0.023295 0.021615 -0.999495
vn 0.022924 0.023127 -0.999470
vn -0.361806 -0.131097 0.922990
vn -0.361806 -0.131097 0.922990
vn -0.268364 -0.057606 0.961594
vn -0.258575 -0.050042 0.964694
vn 0.000000 0.000000 1.000000
vn 0.000000 0.000000 1.000000
vn 0.000000 0.000000 1.000000
vn 0.000000 0.000000 1.000000
vn 0.303511 -0.025948 0.952475
vn 0.303511 -0.025948 0.952475
vn 0.285819 -0.014323 0.958176
vn 0.284664 -0.013567 0.958531
vn -0.012328 -0.051134 -0.998616
vn -0.014490 -0.067261 -0.997630
vn 0.332841 0.066330 0.940647
vn 0.332892 0.066380 0.940626
vn 0.000000 0.000000 1.000000
vn 0.000000 0.000000 1.000000
vn -0.215273 0.023402 0.976273
vn -0.210569 0.017801 0.977417
vn -0.040066 -0.094567 -0.994712
vn -0.063956 -0.150954 -0.986470
vn 0.410101 0.143787 0.900634
vn 0.410101 0.143787 0.900634
vn 0.000000 0.000000 1.000000
vn 0.000000 0.000000 1.000000
vn -0.248818 0.063712 0.966453
vn -0.248818 0.063712 0.966453
vn -0.005885 0.999704 0.023595
vn -0.003861 0.999562 0.029347
vn 0.000000 0.000000 1.000000
vn 0.000000 0.000000 1.000000
vn 0.000000 0.000000 1.000000
vn 0.000000 0.000000 1.000000
vn 0.000000 -1.000000 0.000000
vn 0.000000 -1.000000 0.000000
vn -0.028415 0.004703 -0.999585
vn -0.025006 0.004669 -0.999676
vn -0.010994 0.999898 0.009062
vn -0.010994 0.999899 0.009062
vn 0.000000 0.000000 1.000000
vn 0.000000 0.000000 1.000000
vn 0.000000 0.000000 1.000000
vn 0.000000 0.000000 1.000000
vn 0.000000 0.000000 1.000000
vn 0.000000 0.000000 1.000000
vn 0.000000 0.000000 1.000000
vn 0.000000 0.000000 1.000000
vn 0.000000 -1.000000 0.000000
vn 0.000000 -1.000000 0.000000
vn -0.033263 0.025689 -0.999117
vn -0.025483 0.055141 -0.998153
vn -0.025483 0.055141 -0.998153
vn -0.033940 0.023117 -0.999156
vn -0.039383 0.006341 -0.999204
vn -0.041065 0.007667 -0.999127
vn 0.000000 1.000000 -0.000000
vn 0.000000 1.000000 -0.000000
vn 0.000000 1.000000 -0.000000
vn 0.000000 1.000000 -0.000000
vn -0.998856 0.020342 -0.043271
vn -0.998856 0.020342 -0.043271
vn -0.998856 0.020342 -0.043271
vn -0.998856 0.020342 -0.043271
vn -0.955354 -0.295278 -0.010504
vn -0.955354 -0.295278 -0.010504
vn -0.955354 -0.295278 -0.010504
vn -0.955354 -0.295278 -0.010504
vn 0.999464 0.032027 0.006852
vn 0.999464 0.032027 0.006852
vn 0.999464 0.032027 0.006852
vn 0.999464 0.032027 0.006852
vn 0.955373 -0.294875 -0.017664
vn 0.955373 -0.294875 -0.017664
vn 0.955373 -0.294875 -0.017664
vn 0.955373 -0.294875 -0.017664
vn 0.000000 -0.997900 0.064778
vn 0.000000 -0.997900 0.064778
vn 0.000000 -0.997900 0.064778
vn 0.000000 -0.997900 0.064778
vn 0.000000 1.000000 0.000000
vn 0.000000 1.000000 0.000000
vn -1.000000 0.000000 0.000000
vn -1.000000 0.000000 0.000000
vn -1.000000 0.000000 0.000000
vn -1.000000 0.000000 0.000000
vn 0.868262 -0.010319 0.495999
vn 0.868262 -0.010319 0.495999
vn 0.868262 -0.010319 0.495999
vn 0.868262 -0.010319 0.495999
vn 0.000000 -1.000000 0.000000
vn 0.000000 -1.000000 0.000000
s off
g pCube12
usemtl initialShadingGroup
f 13/13/1 14/14/2 15/15/3 16/16/4
s 1
f 7/7/5 22/97/6 4/4/7
s off
f 4/4/8 3/3/9 8/8/10 7/7/11
s 2
f 5/5/12 77/101/13 1/1/14
s off
f 6/6/15 7/7/16 11/11/17 10/10/18
f 7/7/19 8/8/20 12/12/21 11/11/22
f 8/8/23 5/5/24 9/9/25 12/12/26
f 10/10/27 11/11/28 15/15/29 14/14/30
f 11/11/31 12/12/32 16/16/33 15/15/34
f 12/12/35 9/9/36 13/13/37 16/16/38
f 5/5/39 1/1/40 2/2/41 6/6/42
f 9/9/43 5/5/44 6/6/45 10/10/46
f 13/13/47 9/9/48 10/10/49 14/14/50
f 19/17/51 20/18/52 4/19/53 22/20/54
f 23/23/55 24/24/56 28/25/57 27/26/58
s 3
f 43/27/59 57/28/60 58/29/61 46/30/62
s off
f 25/31/63 26/32/64 30/33/65 29/34/66
s 4
f 17/35/67 78/36/68 18/37/69
f 78/36/68 79/38/70 60/39/71 18/37/69
f 81/40/72 82/41/73 20/42/74 19/17/75
s off
f 20/18/76 82/43/77 3/44/78 4/19/79
f 2/46/80 1/47/81 5/48/82
f 24/24/83 23/23/84 33/49/85 32/50/86
f 32/50/87 33/49/88 37/53/89 36/54/90
f 36/54/91 37/53/92 41/56/93 40/57/94
s 6
f 40/58/95 53/59/96 54/60/97 48/61/98
s off
f 25/31/99 29/34/100 45/62/101 44/63/102
s 7
f 59/64/103 28/25/104 46/30/105 58/29/106
s off
f 28/25/107 24/24/108 43/27/109 46/30/110
s 8
f 24/24/111 62/65/112 63/66/113 32/67/114
s 9
f 57/28/115 43/27/116 49/70/117 56/71/118
s 10
f 43/27/119 24/24/120 32/67/121 49/70/122
s 8
f 32/67/114 63/66/113 64/72/123 36/73/124
s 10
f 49/70/122 32/67/121 36/73/125 51/74/126
s 9
f 56/71/118 49/70/117 51/74/127 55/75/128
s 11
f 34/69/129 50/68/130 52/76/131 38/77/132
s 8
f 36/73/124 64/72/123 53/59/133 40/58/134
s 10
f 51/74/126 36/73/125 40/58/135 48/61/136
s 9
f 55/75/128 51/74/127 48/61/137 54/60/138
s 11
f 38/77/132 52/76/131 47/78/139 42/79/140
s 6
f 53/59/96 65/80/141 66/81/142 54/60/97
s 9
f 67/82/143 55/75/128 54/60/138 66/81/144
s 3
f 58/29/61 57/28/60 69/83/145 70/84/146
s 7
f 71/85/147 59/64/103 58/29/106 70/84/148
s 4
f 60/39/71 79/38/70 80/86/149 72/87/150
s 8
f 53/59/133 64/72/123 75/88/151 65/80/152
s 6
f 65/80/141 42/79/153 47/78/154 66/81/142
s 9
f 52/76/155 67/82/143 66/81/144 47/78/156
f 50/68/157 68/89/158 67/82/143 52/76/155
f 44/63/159 69/83/160 68/89/158 50/68/157
s 3
f 70/84/146 69/83/145 44/63/161 45/62/162
s 7
f 29/34/163 71/85/147 70/84/148 45/62/164
s 4
f 72/87/150 80/86/149 81/40/72 19/17/75
s 8
f 75/88/151 74/90/165 34/69/166 38/77/167
f 65/80/152 75/88/151 38/77/167 42/79/168
s off
f 69/83/169 57/28/170 62/65/171 25/31/172
f 57/28/173 56/71/174 63/66/175 62/65/176
f 56/71/177 55/75/178 64/72/179 63/66/180
f 68/89/181 69/83/182 25/31/183 74/90/184
f 67/82/185 68/89/186 74/90/187 75/88/188
f 55/75/189 67/82/190 75/88/191 64/72/192
f 72/87/193 19/17/194 22/20/195 73/91/196
f 60/39/197 72/87/198 73/91/199 61/92/200
f 18/37/201 60/39/202 61/92/203 2/46/204
f 21/45/205 17/35/206 18/37/207 2/46/208
f 31/51/209 21/45/210 2/46/211 5/48/212
f 35/55/213 31/51/214 5/48/215 9/52/216
f 39/21/217 35/55/218 9/52/219 13/22/220
s 12
f 25/31/221 76/93/222 110/142/223 100/143/224
s 13
f 62/65/225 77/94/226 76/93/227 25/31/228
f 1/47/229 77/94/226 62/65/225 24/24/230
s off
f 5/48/231 1/47/232 24/24/233 32/50/234
f 9/52/235 5/48/236 32/50/237 36/54/238
f 13/22/239 9/52/240 36/54/241 40/57/242
f 39/21/243 13/22/244 40/57/245 41/56/246
f 37/53/247 35/55/248 39/21/249 41/56/250
f 33/49/251 31/51/252 35/55/253 37/53/254
f 23/23/255 21/45/256 31/51/257 33/49/258
f 27/95/259 17/35/260 21/45/261 23/96/262
s 4
f 27/26/263 28/25/264 78/36/68 17/35/67
f 28/25/264 59/64/265 79/38/70 78/36/68
f 80/86/149 79/38/70 59/64/265 71/85/266
f 81/40/72 80/86/149 71/85/266 29/34/267
f 81/40/72 109/152/268 82/41/73
s 1
f 7/7/5 73/98/269 22/97/6
f 6/6/270 61/99/271 73/98/269 7/7/5
f 2/2/272 61/99/271 6/6/270
s 2
f 3/3/273 76/100/274 8/8/275
f 8/8/275 76/100/274 77/101/13 5/5/12
s 14
f 83/102/276 97/103/277 98/104/278 86/105/279
s 15
f 42/106/280 93/107/281 94/108/282 88/109/283
s off
f 3/110/284 82/111/285 85/112/286 84/113/287
s 16
f 99/114/288 30/115/289 86/105/290 98/104/291
s off
f 30/115/292 26/116/293 83/102/294 86/105/295
s 17
f 26/116/296 100/117/297 101/118/298 34/119/299
s 18
f 3/110/300 84/113/301 90/120/302 8/121/303
s 19
f 97/103/304 83/102/305 89/122/306 96/123/307
s 20
f 83/102/308 26/116/309 34/119/310 89/122/311
s 17
f 34/119/299 101/118/298 102/124/312 38/125/313
s 20
f 89/122/311 34/119/310 38/125/314 91/126/315
s 19
f 96/123/307 89/122/306 91/126/316 95/127/317
s 18
f 8/121/303 90/120/302 92/128/318 12/129/319
s 17
f 38/125/313 102/124/312 93/107/320 42/106/321
s 20
f 91/126/315 38/125/314 42/106/322 88/109/323
s 19
f 95/127/317 91/126/316 88/109/324 94/108/325
s 18
f 12/129/319 92/128/318 87/130/326 16/131/327
s 15
f 93/107/281 103/132/328 104/133/329 94/108/282
s 19
f 105/134/330 95/127/317 94/108/325 104/133/331
s 14
f 98/104/278 97/103/277 107/135/332 108/136/333
s 16
f 109/137/334 99/114/288 98/104/291 108/136/335
s 17
f 93/107/320 102/124/312 112/138/336 103/132/337
s 15
f 103/132/328 16/131/338 87/130/339 104/133/329
s 19
f 92/128/340 105/134/330 104/133/331 87/130/341
f 90/120/342 106/139/343 105/134/330 92/128/340
f 84/113/344 107/135/345 106/139/343 90/120/342
s 14
f 108/136/333 107/135/332 84/113/346 85/112/347
s 16
f 82/111/348 109/137/334 108/136/335 85/112/349
s 17
f 111/140/350 110/141/351 3/110/352 8/121/353
f 112/138/336 111/140/350 8/121/353 12/129/354
f 103/132/337 112/138/336 12/129/354 16/131/355
s off
f 107/135/356 97/103/357 100/117/358 110/141/359
f 97/103/360 96/123/361 101/118/362 100/117/363
f 96/123/364 95/127/365 102/124/366 101/118/367
f 106/139/368 107/135/369 110/141/370 111/140/371
f 105/134/372 106/139/373 111/140/374 112/138/375
f 95/127/376 105/134/377 112/138/378 102/124/379
s 12
f 110/142/223 76/93/222 3/44/380
f 25/31/221 100/143/224 26/32/381
s off
f 74/144/382 25/145/383 26/146/384 34/147/385
f 50/148/386 34/149/387 30/150/388 45/151/389
s 4
f 29/34/267 30/33/390 99/153/391
f 29/34/267 99/153/391 109/152/268 81/40/72
